<svg xmlns="http://www.w3.org/2000/svg" width="25" height="23.981" viewBox="0 0 25 23.981">
  <path id="piggy-bank-solid" d="M13.5,4A4.516,4.516,0,0,0,9,8.5a4.4,4.4,0,0,0,.594,2.188A9.416,9.416,0,0,0,5.625,15H5.5a.5.5,0,0,1-.281-.906L4.063,12.469a2.468,2.468,0,0,0,1.031,4.469A7.357,7.357,0,0,0,5,18a8.2,8.2,0,0,0,3.25,6.25,2.917,2.917,0,0,0,.656,2.844,3.063,3.063,0,0,0,4.313,0l.375-.375A13.04,13.04,0,0,0,16,27a13.042,13.042,0,0,0,2.406-.281l.375.375a3.063,3.063,0,0,0,4.313,0,2.9,2.9,0,0,0,.656-2.781A9.21,9.21,0,0,0,25.781,22H28V14H25.719a8.958,8.958,0,0,0-1.281-1.625L25,9.281V8H24a8.437,8.437,0,0,0-4.437,1.563,15.607,15.607,0,0,0-1.625-.375A3.978,3.978,0,0,0,18,8.5,4.516,4.516,0,0,0,13.5,4Zm0,2A2.487,2.487,0,0,1,16,8.5a2.648,2.648,0,0,1-.062.5,13.044,13.044,0,0,0-4.531.844A2.42,2.42,0,0,1,11,8.5,2.487,2.487,0,0,1,13.5,6Zm9.25,4.188c.016,0,.016,0,.031,0l-.375,2.281L22.313,13l.438.375a6.957,6.957,0,0,1,1.625,2.063l.281.563H26v4H24.656l-.281.563a7.173,7.173,0,0,1-2.25,2.531l-.719.531.438.813a1,1,0,0,1-.156,1.25,1.017,1.017,0,0,1-1.469,0l-.719-.719-.406-.375-.531.125a11.816,11.816,0,0,1-5.125,0l-.531-.125-.406.375-.719.719a1.017,1.017,0,0,1-1.469,0,1,1,0,0,1-.156-1.25l.438-.812-.719-.531A6.329,6.329,0,0,1,7,18c0-3.742,3.91-7,9-7a11.2,11.2,0,0,1,3.469.531l.531.188.438-.375A5.463,5.463,0,0,1,22.75,10.188ZM22,16a1,1,0,1,0,1,1A1,1,0,0,0,22,16Z" transform="translate(-3 -4)" fill="#fff"/>
</svg>
